<svg version="1.1" id="Layer_1" xmlns="http://www.w3.org/2000/svg" xmlns:xlink="http://www.w3.org/1999/xlink" x="0px" y="0px"
	 width="100%" viewBox="0 0 823 337" enable-background="new 0 0 823 337" xml:space="preserve">
<path fill="#E1F7F8" opacity="1.000000" stroke="none" 
	d="
M508.000000,338.000000 
	C338.666687,338.000000 169.833374,338.000000 1.000045,338.000000 
	C1.000030,225.666702 1.000030,113.333397 1.000015,1.000075 
	C275.333282,1.000050 549.666565,1.000050 823.999878,1.000025 
	C823.999878,113.333252 823.999878,225.666504 823.999939,337.999878 
	C718.833313,338.000000 613.666687,338.000000 508.000000,338.000000 
M200.736420,258.972839 
	C201.465118,249.036209 201.365234,238.951538 203.108124,229.196091 
	C206.047714,212.742386 215.103455,199.146561 225.247910,186.125153 
	C241.124557,165.745834 246.354126,142.546677 240.917862,117.372612 
	C232.516586,78.468185 200.070816,51.074722 158.066650,50.227276 
	C114.313065,49.344536 75.734184,86.037407 73.826492,129.865082 
	C72.813866,153.129517 80.452087,173.156128 94.875053,191.202026 
	C100.421364,198.141525 105.122986,205.975235 108.987503,213.990662 
	C115.500031,227.498383 116.350746,242.225143 115.811722,256.990204 
	C115.676514,260.693573 116.821304,261.879852 120.602104,261.857300 
	C145.764328,261.707245 170.928024,261.811584 196.090607,261.696045 
	C197.618088,261.689026 199.140152,260.506561 200.736420,258.972839 
M640.055908,167.737930 
	C640.055908,182.015427 640.055908,196.292923 640.055908,210.603394 
	C646.297485,210.603394 651.996582,210.603394 657.896362,210.603394 
	C657.896362,197.215775 657.983093,184.228989 657.850098,171.244446 
	C657.802551,166.598190 657.635620,161.882690 656.809326,157.328308 
	C654.480713,144.493286 643.340393,138.393234 631.775574,143.653641 
	C628.575134,145.109421 625.916626,147.756668 622.996582,149.866577 
	C615.018311,139.246704 604.106567,139.627853 593.263855,148.424286 
	C592.961548,146.631836 592.676147,144.939545 592.400208,143.303314 
	C586.784729,143.303314 581.542175,143.303314 576.343872,143.303314 
	C576.343872,166.003067 576.343872,188.391418 576.343872,210.668152 
	C582.276428,210.668152 587.851868,210.668152 593.792297,210.668152 
	C593.792297,208.529785 593.792236,206.725830 593.792297,204.921875 
	C593.792664,191.424789 593.837708,177.927475 593.768127,164.430756 
	C593.745117,159.967331 595.992188,157.580750 600.178040,156.998260 
	C604.730530,156.364716 607.008240,158.939713 607.685364,163.117981 
	C608.002747,165.076584 608.004578,167.099472 608.008911,169.093536 
	C608.036133,181.590775 608.014832,194.088135 608.037048,206.585403 
	C608.039551,208.009262 608.213257,209.432846 608.294006,210.651352 
	C614.373962,210.651352 619.954834,210.651352 625.849060,210.651352 
	C625.849060,208.495209 625.849792,206.684540 625.848938,204.873886 
	C625.842834,191.543472 625.807617,178.212952 625.846436,164.882675 
	C625.859436,160.428848 628.574402,157.279892 632.447632,156.953995 
	C636.766602,156.590591 639.111633,158.730255 639.885498,163.814743 
	C640.035095,164.797333 639.992737,165.809174 640.055908,167.737930 
M341.569275,197.487671 
	C341.569275,190.889404 341.569275,184.291153 341.569275,177.819077 
	C350.275635,176.519958 350.257690,176.527267 353.157166,183.657410 
	C356.843292,192.721954 360.562164,201.773163 364.229462,210.738495 
	C370.910889,210.738495 377.315979,210.738495 384.287170,210.738495 
	C378.849091,197.807083 373.590149,185.301651 368.234528,172.566345 
	C379.398804,165.770172 381.890106,155.370544 381.078918,143.530029 
	C380.271698,131.747177 373.122070,122.595322 361.344452,121.164001 
	C350.012207,119.786819 338.449768,120.292015 326.987366,120.015251 
	C325.735443,119.985023 324.476349,120.252724 323.298981,120.374153 
	C323.298981,150.689026 323.298981,180.599091 323.298981,210.694260 
	C329.411469,210.694260 335.283020,210.694260 341.568939,210.694260 
	C341.568939,206.422272 341.568939,202.451981 341.569275,197.487671 
M545.391785,190.969223 
	C544.119812,195.940170 540.508789,197.473831 535.913574,197.014038 
	C531.382263,196.560623 530.819946,192.780640 530.323181,189.290771 
	C530.020508,187.164215 530.133179,184.972641 530.130920,182.810211 
	C530.117188,169.702148 530.124084,156.594101 530.124084,143.240936 
	C524.096985,143.240936 518.526611,143.240936 512.764648,143.240936 
	C512.638062,144.217117 512.436829,145.019348 512.444763,145.819519 
	C512.603027,161.794922 512.189270,177.805573 513.137634,193.734909 
	C514.014343,208.460953 526.847900,216.162155 539.199951,210.296570 
	C541.524719,209.192627 543.570007,207.500107 545.809326,206.036652 
	C546.284241,207.787888 546.705200,209.340073 547.114929,210.851105 
	C552.512512,210.851105 557.652893,210.851105 563.040344,210.851105 
	C563.040344,188.277573 563.040344,165.861542 563.040344,143.339752 
	C557.189880,143.339752 551.491272,143.339752 545.420044,143.339752 
	C545.420044,159.145798 545.420044,174.605545 545.391785,190.969223 
M779.064514,198.668930 
	C784.336365,180.247833 789.608276,161.826736 794.952942,143.151184 
	C788.309814,143.151184 782.342163,143.151184 776.125732,143.151184 
	C773.289978,155.036682 770.474915,166.835236 767.659912,178.633804 
	C767.329346,178.635696 766.998840,178.637573 766.668274,178.639465 
	C764.087891,166.765518 761.507507,154.891586 758.965088,143.192062 
	C752.337585,143.192062 746.382568,143.192062 740.037109,143.192062 
	C745.957092,163.906677 751.781494,184.340210 757.639648,204.764084 
	C760.940308,216.271774 758.352051,220.941483 746.996155,223.729385 
	C746.996155,228.001053 746.996155,232.282547 746.996155,236.480591 
	C758.223633,240.565292 767.458008,235.978210 771.693909,223.833664 
	C774.480774,215.843826 776.526855,207.595642 779.064514,198.668930 
M418.512177,142.001160 
	C404.885590,142.586319 395.807343,149.367706 393.449738,162.559036 
	C391.976685,170.801270 391.819489,179.488129 392.516388,187.855148 
	C393.367676,198.075592 398.531158,206.294327 408.720612,209.907776 
	C419.726349,213.810654 430.394531,212.829285 439.921356,205.594101 
	C441.321808,204.530533 442.951080,201.757080 442.472137,200.613007 
	C441.119080,197.381012 438.724884,194.584885 436.741455,191.617828 
	C428.830109,197.192871 420.385498,198.847336 415.297424,195.779678 
	C410.813232,193.076096 409.619843,188.765213 410.034576,183.177582 
	C421.607727,183.177582 432.993958,183.177582 445.417297,183.177582 
	C444.608429,175.420334 444.477753,168.243317 443.008179,161.351822 
	C440.259644,148.462845 432.640411,142.587753 418.512177,142.001160 
M158.500000,309.990784 
	C168.165497,309.990204 177.831894,310.069824 187.496216,309.962646 
	C194.690506,309.882904 199.768555,306.033203 200.262283,299.204010 
	C200.858383,290.958801 200.403473,282.637634 200.403473,274.082275 
	C172.247833,274.082275 144.355240,274.082275 115.994858,274.082275 
	C115.994858,281.768738 115.927406,289.227509 116.012787,296.684509 
	C116.108681,305.059784 121.024002,309.905060 129.503510,309.972961 
	C138.835129,310.047729 148.167786,309.990509 158.500000,309.990784 
M477.464508,155.013382 
	C482.715057,155.059998 483.389771,159.360825 484.334015,162.669647 
	C490.393158,162.669647 495.943024,162.669647 501.570618,162.669647 
	C501.234589,153.950516 497.358704,147.940338 489.837952,144.570923 
	C482.219299,141.157639 474.300018,140.875565 466.513855,143.954361 
	C459.324860,146.797043 454.827972,152.044022 453.952118,159.951675 
	C453.030487,168.272690 456.195801,174.607788 463.487610,178.733765 
	C466.374634,180.367325 469.450378,181.664536 472.415161,183.164352 
	C475.527100,184.738647 479.021576,185.906052 481.555176,188.148132 
	C483.172150,189.579025 484.337738,192.871460 483.862610,194.896881 
	C483.466675,196.584610 480.528717,198.467819 478.469147,198.821030 
	C472.887482,199.778244 470.620209,197.599106 468.101746,190.140106 
	C462.839966,190.140106 457.560272,190.140106 451.827301,190.140106 
	C452.180145,192.199371 452.308716,194.002716 452.808411,195.696579 
	C456.252838,207.371689 468.679230,214.253799 482.505798,211.545425 
	C486.923798,210.680008 491.604065,208.863419 495.123505,206.137970 
	C504.978760,198.506287 504.184418,183.122147 493.559418,176.251083 
	C487.745361,172.491211 480.926453,170.311462 474.940460,166.776154 
	C472.972107,165.613647 470.951202,162.258835 471.233612,160.222595 
	C471.503845,158.273758 474.734558,156.735504 477.464508,155.013382 
M707.425110,190.499634 
	C707.425110,197.255829 707.425110,204.012024 707.425110,210.671097 
	C713.758179,210.671097 719.341309,210.671097 725.459839,210.671097 
	C725.459839,192.457565 725.459839,174.576996 725.459839,156.115967 
	C729.223999,156.115967 732.444153,156.115967 735.900330,156.115967 
	C735.900330,153.532410 735.900269,151.544815 735.900269,149.557220 
	C735.900269,147.461121 735.900330,145.365021 735.900330,142.813171 
	C731.965881,142.813171 728.710205,142.813171 725.509216,142.813171 
	C724.527283,131.738464 725.512024,130.563522 737.391235,128.351013 
	C737.391235,124.106522 737.391235,119.818443 737.391235,115.404587 
	C730.438110,113.095543 723.773376,113.364723 717.530212,116.943794 
	C707.476196,122.707542 707.517456,132.884232 707.240601,142.768860 
	C704.347473,142.954544 701.936035,143.109314 699.521484,143.264282 
	C699.521484,147.747452 699.521484,151.809570 699.521484,156.022858 
	C702.222778,156.242188 704.621948,156.436996 707.425415,156.664627 
	C707.425415,167.908371 707.425415,178.704025 707.425110,190.499634 
M671.994751,176.500000 
	C671.994751,187.900986 671.994751,199.301971 671.994751,210.755951 
	C678.188232,210.755951 683.763367,210.755951 689.591797,210.755951 
	C689.591797,188.170303 689.591797,165.834137 689.591797,143.325668 
	C683.642395,143.325668 677.949829,143.325668 671.994751,143.325668 
	C671.994751,154.269821 671.994751,164.884918 671.994751,176.500000 
M676.686951,134.176315 
	C681.369019,135.852234 685.677979,135.341827 688.674683,131.134872 
	C691.195740,127.595703 691.210510,123.500015 688.645081,119.964142 
	C685.917603,116.204811 681.676270,114.853722 677.640503,116.895897 
	C675.037109,118.213234 672.461792,121.083115 671.514709,123.824097 
	C670.110107,127.889481 672.109924,131.563507 676.686951,134.176315 
M85.184189,68.769226 
	C86.935059,67.522499 88.685921,66.275772 89.903481,65.408791 
	C84.874832,60.181103 80.822571,55.968464 77.222496,52.225895 
	C74.598488,54.804295 71.936066,57.420441 69.257927,60.052029 
	C73.116577,63.928818 77.193649,68.025055 81.433014,72.284355 
	C82.549728,71.246994 83.613297,70.259003 85.184189,68.769226 
M232.688889,223.815979 
	C234.687347,226.218002 236.685806,228.620041 238.471802,230.766693 
	C242.019409,227.270477 244.698669,224.630035 246.830002,222.529572 
	C242.846786,218.318314 238.842285,214.084549 235.056946,210.082474 
	C232.519897,212.766800 229.966293,215.468674 226.825394,218.791916 
	C228.399872,220.119904 230.293625,221.717178 232.688889,223.815979 
M55.699253,145.116348 
	C55.699253,141.831650 55.699253,138.546951 55.699253,135.115479 
	C49.367775,135.115479 43.619774,135.115479 37.675621,135.115479 
	C37.675621,139.127213 37.675621,142.864670 37.675621,147.382385 
	C43.876949,146.910217 49.721657,146.465195 55.699253,145.116348 
M356.381104,295.312622 
	C356.381104,297.096436 356.381104,298.880249 356.381104,301.053314 
	C358.423431,301.053314 359.890747,301.056335 361.358093,301.052795 
	C369.307739,301.033783 372.002014,296.714508 368.787811,289.451263 
	C368.334106,288.425964 368.685913,286.832092 369.113586,285.665924 
	C370.857849,280.909485 368.702118,277.332581 363.618683,276.991333 
	C361.366241,276.840118 359.095184,276.965851 356.381531,276.965851 
	C356.381531,283.137360 356.381531,288.747711 356.381104,295.312622 
M78.634933,211.936630 
	C75.327919,215.160965 72.020912,218.385315 68.857834,221.469315 
	C71.935326,224.620331 74.560806,227.308533 77.150986,229.960587 
	C81.264702,225.866516 85.349861,221.800873 89.477997,217.692444 
	C86.766449,214.990372 84.088402,212.321671 81.320000,209.562943 
	C80.654938,210.121841 79.898117,210.757858 78.634933,211.936630 
M246.042236,57.780853 
	C243.965118,55.529411 241.888000,53.277969 240.163773,51.409031 
	C235.430832,55.969231 231.301208,59.948128 227.628967,63.486343 
	C230.159241,66.459824 232.658997,69.397446 235.422318,72.644806 
	C239.185532,68.752968 242.597885,65.386696 245.775253,61.811581 
	C246.477570,61.021358 246.348541,59.492302 246.042236,57.780853 
M278.851532,146.184509 
	C278.851532,142.462646 278.851532,138.740768 278.851532,135.275009 
	C272.540649,135.275009 266.833313,135.275009 261.368286,135.275009 
	C261.368286,139.403259 261.368286,143.112564 261.368286,146.805984 
	C267.220764,146.805984 272.681702,146.805984 278.851532,146.184509 
M152.136124,26.594067 
	C152.136124,30.333870 152.136124,34.073673 152.136124,37.740997 
	C156.544281,37.740997 160.257324,37.740997 163.875031,37.740997 
	C163.875031,31.684090 163.875031,25.994453 163.875031,20.374384 
	C159.808014,20.374384 156.111877,20.374384 152.136200,20.374384 
	C152.136200,22.373199 152.136200,24.005854 152.136124,26.594067 
M693.352783,284.249481 
	C692.297791,283.830048 690.949036,282.767700 690.234741,283.094025 
	C685.065796,285.455566 679.790771,281.849548 674.678284,283.572693 
	C673.195190,294.159332 673.881836,299.811615 677.277832,300.834595 
	C677.277832,297.085419 677.025513,293.447449 677.403076,289.876068 
	C677.552307,288.464722 679.103455,287.201599 680.016174,285.870941 
	C681.031433,287.250275 682.683716,288.526855 682.926270,290.030823 
	C683.397827,292.954193 682.950256,296.014679 683.172363,298.996887 
	C683.231079,299.785797 684.343140,300.496277 684.971619,301.242767 
	C686.115051,297.220306 685.811096,293.717712 686.249939,290.310791 
	C686.453430,288.730927 688.102600,287.337280 689.096375,285.859192 
	C690.058167,287.290283 691.617126,288.629852 691.853577,290.172150 
	C692.302795,293.102448 691.897827,296.154724 692.080627,299.142090 
	C692.119263,299.774261 693.157776,300.345245 693.735596,300.944427 
	C694.155579,300.352692 694.965759,299.739197 694.934204,299.172638 
	C694.668396,294.405365 694.248535,289.646667 693.352783,284.249481 
M619.993103,291.452606 
	C622.449402,287.988922 624.673218,284.320404 622.094299,280.106506 
	C619.098389,275.211243 614.216431,277.323425 609.404907,277.084503 
	C609.404907,284.482330 609.348572,291.590393 609.486023,298.694702 
	C609.500916,299.464691 610.637146,300.212952 611.253296,300.971313 
	C611.716003,300.224091 612.508789,299.505981 612.577698,298.724060 
	C612.763672,296.614197 612.641357,294.477173 612.641357,292.439911 
	C617.367249,290.409454 617.387817,294.267883 618.703003,296.384491 
	C619.888428,298.292206 619.653931,301.997864 623.891418,300.590210 
	C622.577393,297.643768 621.363464,294.921814 619.993103,291.452606 
M467.829803,279.343842 
	C467.349335,284.822998 466.197296,290.370117 466.741150,295.745667 
	C466.940033,297.711182 471.062531,300.557312 473.573547,300.756958 
	C479.609253,301.236816 482.445435,299.254974 480.421753,288.908630 
	C478.227173,289.035278 475.990387,289.164337 473.753601,289.293396 
	C473.707031,289.757782 473.660461,290.222198 473.613892,290.686584 
	C474.980103,291.228668 476.346344,291.770752 479.175995,292.893494 
	C477.497101,294.912994 476.382141,297.577179 474.683472,298.024445 
	C471.053925,298.980072 469.201813,296.412018 468.998657,292.920013 
	C468.834839,290.105316 468.606781,287.200745 469.129700,284.474640 
	C469.446198,282.824615 470.959961,280.425751 472.260895,280.194885 
	C473.827972,279.916748 475.761322,281.538910 477.494141,282.420929 
	C478.483704,282.924622 479.389709,283.592529 481.178650,284.718506 
	C478.918152,276.770233 474.877716,275.270233 467.829803,279.343842 
M432.068115,291.451447 
	C431.160217,294.515259 430.252350,297.579041 429.344452,300.642853 
	C429.750488,300.883026 430.156525,301.123199 430.562561,301.363342 
	C431.368134,300.467590 432.673828,299.675110 432.884247,298.656433 
	C433.483795,295.753540 434.755035,294.540802 437.914948,294.605194 
	C440.869415,294.665375 442.514313,295.375549 443.109985,298.463501 
	C443.316315,299.533020 444.730896,300.369476 445.593597,301.312408 
	C445.971466,301.037537 446.349304,300.762695 446.727173,300.487854 
	C444.476074,293.291016 442.261658,286.082214 439.919983,278.915009 
	C439.672119,278.156433 438.680969,277.156403 438.027161,277.150879 
	C437.373718,277.145416 436.374634,278.129822 436.108704,278.885101 
	C434.736481,282.782288 433.551025,286.745209 432.068115,291.451447 
M406.122192,297.149628 
	C408.575684,303.422485 413.849701,299.632233 417.802551,300.845337 
	C417.802551,292.338348 417.802551,284.246826 417.802551,276.155304 
	C417.209778,276.066925 416.617004,275.978546 416.024231,275.890167 
	C415.544373,278.469177 415.064484,281.048187 414.584839,283.625885 
	C408.440979,282.310181 405.953491,284.095490 405.524780,290.429932 
	C405.391693,292.396423 405.780121,294.398163 406.122192,297.149628 
M639.057983,288.785950 
	C638.587891,284.887329 636.526428,282.667480 632.465942,283.028809 
	C628.694946,283.364410 627.006592,285.961060 626.773865,289.431854 
	C626.609863,291.877747 626.200562,294.771698 627.272339,296.705353 
	C628.344482,298.639587 630.967285,300.288727 633.202942,300.811646 
	C634.826416,301.191406 636.926636,299.532959 638.814270,298.783325 
	C638.621643,298.391266 638.428955,297.999207 638.236267,297.607147 
	C630.390259,298.590668 630.314087,298.550201 630.059998,292.590302 
	C632.180420,292.590302 634.354736,292.919220 636.346558,292.458710 
	C637.425781,292.209167 638.193726,290.613922 639.057983,288.785950 
M569.238281,286.967133 
	C569.136597,290.082642 568.229614,293.483124 569.197998,296.220032 
	C569.922363,298.267273 572.870972,300.103729 575.198975,300.803406 
	C576.732178,301.264191 578.922363,299.538940 580.818359,298.792572 
	C580.627808,298.401123 580.437317,298.009644 580.246826,297.618195 
	C572.326294,298.553650 572.322266,298.551514 572.066772,292.879547 
	C574.952087,292.698303 577.850342,292.516235 582.540100,292.221619 
	C580.597107,288.705383 579.747925,285.251984 577.551453,283.674500 
	C574.751282,281.663422 571.511841,283.032928 569.238281,286.967133 
M596.966980,279.772766 
	C596.577698,278.436646 596.188354,277.100525 595.799011,275.764404 
	C595.269470,275.871887 594.739929,275.979340 594.210388,276.086792 
	C594.061829,278.623932 593.913330,281.161102 593.762512,283.738525 
	C587.618042,282.345184 584.808167,283.814728 584.418762,289.289642 
	C584.194458,292.443726 584.259155,296.955383 586.150940,298.588135 
	C588.572693,300.678284 592.965332,300.484985 596.967224,301.377960 
	C596.967224,293.993256 596.967224,287.356079 596.966980,279.772766 
M513.423279,296.250305 
	C513.342224,293.272156 513.850037,290.103943 512.971863,287.383057 
	C512.392151,285.586884 510.025726,283.880432 508.079071,283.157257 
	C506.335571,282.509521 504.071930,283.261841 501.821045,283.410797 
	C501.720490,284.456635 501.528015,285.586884 501.518158,286.718719 
	C501.483551,290.694733 501.416687,294.675568 501.595703,298.644012 
	C501.631866,299.445679 502.689148,300.201233 503.275635,300.978058 
	C503.734467,300.228577 504.548981,299.497925 504.589844,298.726318 
	C504.755981,295.586517 504.416290,292.397980 504.833160,289.304169 
	C505.000610,288.061310 506.637390,287.016449 507.605408,285.881500 
	C508.488983,287.021606 509.941925,288.072449 510.137482,289.320343 
	C510.543213,291.909424 510.136536,294.615234 510.356567,297.248566 
	C510.462799,298.520294 511.231445,299.736694 511.700134,300.978119 
	C512.274170,299.696747 512.848206,298.415344 513.423279,296.250305 
M374.475708,287.747345 
	C374.477173,299.584900 374.476715,299.588623 385.211395,300.882385 
	C385.455780,300.911835 385.742615,300.588928 386.001892,300.434967 
	C386.001892,294.688477 386.001892,288.965149 386.001892,283.241821 
	C385.617828,283.090454 385.233734,282.939117 384.849670,282.787781 
	C384.327545,283.768463 383.425964,284.722443 383.354706,285.734863 
	C383.144775,288.717407 383.537933,291.761536 383.125488,294.701691 
	C382.949432,295.956696 381.360840,297.013489 380.414093,298.160339 
	C379.476074,297.066101 377.930267,296.074097 377.725586,294.856537 
	C377.289429,292.262665 377.678986,289.541473 377.469055,286.893127 
	C377.365448,285.585846 376.681976,284.324524 376.260864,283.042389 
	C375.666107,284.316040 375.071350,285.589691 374.475708,287.747345 
M700.135925,298.095581 
	C704.680420,302.410126 709.080933,302.182068 710.636780,297.551361 
	C703.320862,298.800995 702.717407,298.475952 702.440552,292.874481 
	C705.468750,292.669189 708.516479,292.462555 711.501404,292.260193 
	C711.613159,285.666138 710.026978,283.173950 705.939331,282.982086 
	C701.673279,282.781860 699.091492,285.837524 699.049316,291.467896 
	C699.034668,293.422150 699.548218,295.380341 700.135925,298.095581 
M519.373535,284.833984 
	C518.901306,288.945496 517.818848,293.125946 518.271362,297.133057 
	C518.441223,298.637177 522.050354,300.320740 524.332092,300.817627 
	C525.836060,301.145111 527.769531,299.500214 529.510620,298.738464 
	C529.310730,298.357300 529.110779,297.976166 528.910828,297.595001 
	C521.285522,298.696747 520.999084,298.540649 520.847778,292.852722 
	C523.756287,292.685028 526.679321,292.516510 529.556763,292.350586 
	C530.401794,284.130890 526.846130,281.254883 519.373535,284.833984 
M489.236298,296.865417 
	C488.964600,295.670502 488.692871,294.475586 488.329834,292.878937 
	C491.801300,292.677032 494.713196,292.507660 497.712585,292.333191 
	C498.228943,288.379150 498.049896,284.518890 493.979645,283.516907 
	C491.852722,282.993378 487.429169,284.443695 486.979614,285.905548 
	C485.843903,289.598785 485.744232,293.936035 486.547882,297.736389 
	C486.859467,299.209747 490.639862,300.410126 492.997192,300.811249 
	C494.333313,301.038635 495.987915,299.394470 497.499054,298.593201 
	C497.258209,298.245911 497.017334,297.898651 496.776489,297.551361 
	C494.465393,297.551361 492.154327,297.551361 489.236298,296.865417 
M548.850464,285.762207 
	C549.881531,286.724854 550.912659,287.687531 552.557800,289.223541 
	C549.523987,289.888397 547.847656,290.038849 546.344666,290.630219 
	C543.183044,291.874176 542.302856,294.524597 543.096863,297.556976 
	C543.924683,300.718048 546.323059,301.333832 549.353638,300.813843 
	C551.070557,300.519257 552.879517,300.760651 554.656067,300.760651 
	C554.656067,296.685608 555.148804,292.633270 554.460510,288.792511 
	C554.082886,286.685455 552.069580,283.921509 550.162415,283.251709 
	C546.957397,282.126251 544.228333,283.892731 542.720947,288.878693 
	C545.203796,287.474365 546.604858,286.681885 548.850464,285.762207 
M650.756714,283.355743 
	C647.306213,282.467377 644.222473,282.911743 643.087646,286.733429 
	C642.041687,290.256012 644.696411,291.769592 647.420898,292.979797 
	C648.027588,293.249329 648.876160,293.408722 649.158203,293.887207 
	C649.814270,294.999756 650.192810,296.275940 650.683777,297.485809 
	C649.284241,297.581360 647.775391,298.043518 646.516296,297.668060 
	C645.288208,297.301849 644.315430,296.079590 642.162720,294.400024 
	C642.929504,299.646576 645.358887,301.328156 648.562866,300.865326 
	C650.492126,300.586609 653.052856,299.033752 653.793152,297.369781 
	C655.241089,294.115387 652.703918,292.233459 649.880432,291.017639 
	C649.574585,290.885956 649.142212,290.857635 648.973572,290.629669 
	C648.024719,289.347656 647.138672,288.019196 646.231201,286.706573 
	C647.777527,286.892761 649.340149,286.996216 650.864197,287.295837 
	C651.795166,287.478851 652.666870,287.963470 653.565125,288.312622 
	C653.815918,287.978790 654.066711,287.644958 654.317505,287.311157 
	C653.353516,286.120178 652.389465,284.929230 650.756714,283.355743 
M662.623596,298.026154 
	C662.083374,294.225464 661.596985,290.415863 660.973328,286.628937 
	C660.758850,285.326630 660.201843,284.080780 659.801270,282.809143 
	C659.256592,282.945892 658.711914,283.082611 658.167236,283.219330 
	C658.167236,287.669891 657.697083,292.196747 658.401001,296.532990 
	C658.678467,298.242218 661.362244,300.128052 663.341187,300.827972 
	C665.176208,301.476929 667.532532,300.651917 669.651184,300.476593 
	C670.735840,287.377625 670.298096,284.100525 666.923096,283.247986 
	C666.923096,286.813843 667.279053,290.336609 666.768127,293.728760 
	C666.524353,295.347321 664.633545,296.717834 662.623596,298.026154 
M398.418945,292.415619 
	C398.422699,294.409515 398.269623,296.421722 398.499725,298.389160 
	C398.606598,299.302887 399.458435,300.129517 399.972534,300.995636 
	C400.535248,300.174255 401.569183,299.362396 401.586029,298.529968 
	C401.720520,291.886322 401.719604,285.237732 401.593750,278.593811 
	C401.577209,277.721497 400.618744,276.867004 400.096558,276.004242 
	C399.541962,276.829041 398.540619,277.636536 398.507904,278.481537 
	C398.340851,282.795349 398.423981,287.118866 398.418945,292.415619 
M450.302582,299.834045 
	C453.081177,302.424194 453.451630,300.528961 453.460327,298.110321 
	C453.481934,292.110504 453.540802,286.108826 453.400208,280.112244 
	C453.375793,279.070190 452.449310,278.049286 451.939484,277.018585 
	C451.362366,278.161194 450.316650,279.291534 450.286346,280.448486 
	C450.125183,286.610687 450.218201,292.779510 450.302582,299.834045 
M561.214661,300.048492 
	C562.560669,300.283417 563.906616,300.518341 566.251770,300.927643 
	C561.958923,295.637909 561.955078,287.685333 565.370972,283.757965 
	C561.320679,280.825989 561.320679,280.825989 558.011292,283.821106 
	C558.772095,285.853668 559.677551,287.407349 559.902527,289.054016 
	C560.369629,292.472046 560.475586,295.939392 561.214661,300.048492 
M533.585999,299.738831 
	C536.314270,301.080658 536.446045,301.089905 536.616455,298.657013 
	C536.789001,296.194733 536.520630,293.699799 536.722351,291.241913 
	C536.849609,289.690613 537.235229,288.044434 537.972412,286.696472 
	C538.548767,285.642670 539.844116,284.982086 540.819946,284.146790 
	C539.400574,283.897217 537.986206,283.612823 536.560059,283.410919 
	C535.682434,283.286652 534.787048,283.288269 533.519592,283.209839 
	C533.519592,288.678711 533.519592,293.772095 533.585999,299.738831 
M393.451813,283.176514 
	C392.647797,283.837219 391.181152,284.466034 391.147583,285.163788 
	C390.934113,289.605255 390.956146,294.064697 391.107330,298.511169 
	C391.135498,299.339233 392.100861,300.135437 392.633698,300.946350 
	C393.090546,300.068970 393.922424,299.199768 393.941711,298.312866 
	C394.045685,293.535339 393.947876,288.753418 393.451813,283.176514 
z"/>
<path fill="#CB4E27" opacity="1.000000" stroke="none" 
	d="
M200.700577,259.421936 
	C199.140152,260.506561 197.618088,261.689026 196.090607,261.696045 
	C170.928024,261.811584 145.764328,261.707245 120.602104,261.857300 
	C116.821304,261.879852 115.676514,260.693573 115.811722,256.990204 
	C116.350746,242.225143 115.500031,227.498383 108.987503,213.990662 
	C105.122986,205.975235 100.421364,198.141525 94.875053,191.202026 
	C80.452087,173.156128 72.813866,153.129517 73.826492,129.865082 
	C75.734184,86.037407 114.313065,49.344536 158.066650,50.227276 
	C200.070816,51.074722 232.516586,78.468185 240.917862,117.372612 
	C246.354126,142.546677 241.124557,165.745834 225.247910,186.125153 
	C215.103455,199.146561 206.047714,212.742386 203.108124,229.196091 
	C201.365234,238.951538 201.465118,249.036209 200.700577,259.421936 
M213.440155,181.899139 
	C215.070053,179.586914 216.739319,177.301300 218.323578,174.958206 
	C229.518127,158.401718 232.941589,140.127594 229.249924,120.713379 
	C222.043304,82.814255 185.960983,58.151413 149.085770,63.085285 
	C122.546898,66.636154 102.996048,81.062599 92.421394,105.147980 
	C80.272774,132.818344 83.774033,159.422974 104.102409,182.871765 
	C119.417595,200.537827 127.237511,221.146881 127.725128,244.460220 
	C127.816383,248.823273 129.560150,249.664459 133.433716,249.626785 
	C149.917679,249.466385 166.406311,249.412003 182.888184,249.657867 
	C187.252594,249.722977 188.688965,248.310120 188.834412,244.051666 
	C189.631638,220.708008 198.602585,200.505035 213.440155,181.899139 
z"/>
<path fill="#CA4D25" opacity="1.000000" stroke="none" 
	d="
M640.047424,167.272720 
	C639.992737,165.809174 640.035095,164.797333 639.885498,163.814743 
	C639.111633,158.730255 636.766602,156.590591 632.447632,156.953995 
	C628.574402,157.279892 625.859436,160.428848 625.846436,164.882675 
	C625.807617,178.212952 625.842834,191.543472 625.848938,204.873886 
	C625.849792,206.684540 625.849060,208.495209 625.849060,210.651352 
	C619.954834,210.651352 614.373962,210.651352 608.294006,210.651352 
	C608.213257,209.432846 608.039551,208.009262 608.037048,206.585403 
	C608.014832,194.088135 608.036133,181.590775 608.008911,169.093536 
	C608.004578,167.099472 608.002747,165.076584 607.685364,163.117981 
	C607.008240,158.939713 604.730530,156.364716 600.178040,156.998260 
	C595.992188,157.580750 593.745117,159.967331 593.768127,164.430756 
	C593.837708,177.927475 593.792664,191.424789 593.792297,204.921875 
	C593.792236,206.725830 593.792297,208.529785 593.792297,210.668152 
	C587.851868,210.668152 582.276428,210.668152 576.343872,210.668152 
	C576.343872,188.391418 576.343872,166.003067 576.343872,143.303314 
	C581.542175,143.303314 586.784729,143.303314 592.400208,143.303314 
	C592.676147,144.939545 592.961548,146.631836 593.263855,148.424286 
	C604.106567,139.627853 615.018311,139.246704 622.996582,149.866577 
	C625.916626,147.756668 628.575134,145.109421 631.775574,143.653641 
	C643.340393,138.393234 654.480713,144.493286 656.809326,157.328308 
	C657.635620,161.882690 657.802551,166.598190 657.850098,171.244446 
	C657.983093,184.228989 657.896362,197.215775 657.896362,210.603394 
	C651.996582,210.603394 646.297485,210.603394 640.055908,210.603394 
	C640.055908,196.292923 640.055908,182.015427 640.047424,167.272720 
z"/>
<path fill="#CA4D25" opacity="1.000000" stroke="none" 
	d="
M341.569092,197.984680 
	C341.568939,202.451981 341.568939,206.422272 341.568939,210.694260 
	C335.283020,210.694260 329.411469,210.694260 323.298981,210.694260 
	C323.298981,180.599091 323.298981,150.689026 323.298981,120.374153 
	C324.476349,120.252724 325.735443,119.985023 326.987366,120.015251 
	C338.449768,120.292015 350.012207,119.786819 361.344452,121.164001 
	C373.122070,122.595322 380.271698,131.747177 381.078918,143.530029 
	C381.890106,155.370544 379.398804,165.770172 368.234528,172.566345 
	C373.590149,185.301651 378.849091,197.807083 384.287170,210.738495 
	C377.315979,210.738495 370.910889,210.738495 364.229462,210.738495 
	C360.562164,201.773163 356.843292,192.721954 353.157166,183.657410 
	C350.257690,176.527267 350.275635,176.519958 341.569275,177.819077 
	C341.569275,184.291153 341.569275,190.889404 341.569092,197.984680 
M362.943542,149.344788 
	C362.550140,136.662933 356.599548,132.814301 341.842163,135.892517 
	C341.842163,144.411530 341.842163,152.977112 341.842163,161.501663 
	C356.675049,163.593597 361.121887,161.166199 362.943542,149.344788 
z"/>
<path fill="#CA4E27" opacity="1.000000" stroke="none" 
	d="
M545.405884,190.517242 
	C545.420044,174.605545 545.420044,159.145798 545.420044,143.339752 
	C551.491272,143.339752 557.189880,143.339752 563.040344,143.339752 
	C563.040344,165.861542 563.040344,188.277573 563.040344,210.851105 
	C557.652893,210.851105 552.512512,210.851105 547.114929,210.851105 
	C546.705200,209.340073 546.284241,207.787888 545.809326,206.036652 
	C543.570007,207.500107 541.524719,209.192627 539.199951,210.296570 
	C526.847900,216.162155 514.014343,208.460953 513.137634,193.734909 
	C512.189270,177.805573 512.603027,161.794922 512.444763,145.819519 
	C512.436829,145.019348 512.638062,144.217117 512.764648,143.240936 
	C518.526611,143.240936 524.096985,143.240936 530.124084,143.240936 
	C530.124084,156.594101 530.117188,169.702148 530.130920,182.810211 
	C530.133179,184.972641 530.020508,187.164215 530.323181,189.290771 
	C530.819946,192.780640 531.382263,196.560623 535.913574,197.014038 
	C540.508789,197.473831 544.119812,195.940170 545.405884,190.517242 
z"/>
<path fill="#CA4C25" opacity="1.000000" stroke="none" 
	d="
M778.984619,199.066040 
	C776.526855,207.595642 774.480774,215.843826 771.693909,223.833664 
	C767.458008,235.978210 758.223633,240.565292 746.996155,236.480591 
	C746.996155,232.282547 746.996155,228.001053 746.996155,223.729385 
	C758.352051,220.941483 760.940308,216.271774 757.639648,204.764084 
	C751.781494,184.340210 745.957092,163.906677 740.037109,143.192062 
	C746.382568,143.192062 752.337585,143.192062 758.965088,143.192062 
	C761.507507,154.891586 764.087891,166.765518 766.668274,178.639465 
	C766.998840,178.637573 767.329346,178.635696 767.659912,178.633804 
	C770.474915,166.835236 773.289978,155.036682 776.125732,143.151184 
	C782.342163,143.151184 788.309814,143.151184 794.952942,143.151184 
	C789.608276,161.826736 784.336365,180.247833 778.984619,199.066040 
z"/>
<path fill="#CA4C25" opacity="1.000000" stroke="none" 
	d="
M418.966217,142.001190 
	C432.640411,142.587753 440.259644,148.462845 443.008179,161.351822 
	C444.477753,168.243317 444.608429,175.420334 445.417297,183.177582 
	C432.993958,183.177582 421.607727,183.177582 410.034576,183.177582 
	C409.619843,188.765213 410.813232,193.076096 415.297424,195.779678 
	C420.385498,198.847336 428.830109,197.192871 436.741455,191.617828 
	C438.724884,194.584885 441.119080,197.381012 442.472137,200.613007 
	C442.951080,201.757080 441.321808,204.530533 439.921356,205.594101 
	C430.394531,212.829285 419.726349,213.810654 408.720612,209.907776 
	C398.531158,206.294327 393.367676,198.075592 392.516388,187.855148 
	C391.819489,179.488129 391.976685,170.801270 393.449738,162.559036 
	C395.807343,149.367706 404.885590,142.586319 418.966217,142.001190 
M410.092438,166.013245 
	C410.092438,167.582855 410.092438,169.152466 410.092438,170.777695 
	C415.898285,170.777695 421.319977,170.777695 427.279938,170.777695 
	C427.039764,168.103226 427.111328,165.620651 426.549927,163.290573 
	C425.117645,157.345764 419.466339,154.561371 414.808716,157.901840 
	C412.652649,159.448196 411.719055,162.699051 410.092438,166.013245 
z"/>
<path fill="#CA4D25" opacity="1.000000" stroke="none" 
	d="
M158.000000,309.990784 
	C148.167786,309.990509 138.835129,310.047729 129.503510,309.972961 
	C121.024002,309.905060 116.108681,305.059784 116.012787,296.684509 
	C115.927406,289.227509 115.994858,281.768738 115.994858,274.082275 
	C144.355240,274.082275 172.247833,274.082275 200.403473,274.082275 
	C200.403473,282.637634 200.858383,290.958801 200.262283,299.204010 
	C199.768555,306.033203 194.690506,309.882904 187.496216,309.962646 
	C177.831894,310.069824 168.165497,309.990204 158.000000,309.990784 
M142.504440,285.884521 
	C137.758820,285.884521 133.013214,285.884521 128.298492,285.884521 
	C128.298492,290.264130 128.298492,293.864044 128.298492,297.546906 
	C148.401550,297.546906 168.252060,297.546906 188.125488,297.546906 
	C188.125488,293.563232 188.125488,289.967926 188.125488,285.884460 
	C173.065201,285.884460 158.284286,285.884460 142.504440,285.884521 
z"/>
<path fill="#CA4D26" opacity="1.000000" stroke="none" 
	d="
M477.064301,155.015076 
	C474.734558,156.735504 471.503845,158.273758 471.233612,160.222595 
	C470.951202,162.258835 472.972107,165.613647 474.940460,166.776154 
	C480.926453,170.311462 487.745361,172.491211 493.559418,176.251083 
	C504.184418,183.122147 504.978760,198.506287 495.123505,206.137970 
	C491.604065,208.863419 486.923798,210.680008 482.505798,211.545425 
	C468.679230,214.253799 456.252838,207.371689 452.808411,195.696579 
	C452.308716,194.002716 452.180145,192.199371 451.827301,190.140106 
	C457.560272,190.140106 462.839966,190.140106 468.101746,190.140106 
	C470.620209,197.599106 472.887482,199.778244 478.469147,198.821030 
	C480.528717,198.467819 483.466675,196.584610 483.862610,194.896881 
	C484.337738,192.871460 483.172150,189.579025 481.555176,188.148132 
	C479.021576,185.906052 475.527100,184.738647 472.415161,183.164352 
	C469.450378,181.664536 466.374634,180.367325 463.487610,178.733765 
	C456.195801,174.607788 453.030487,168.272690 453.952118,159.951675 
	C454.827972,152.044022 459.324860,146.797043 466.513855,143.954361 
	C474.300018,140.875565 482.219299,141.157639 489.837952,144.570923 
	C497.358704,147.940338 501.234589,153.950516 501.570618,162.669647 
	C495.943024,162.669647 490.393158,162.669647 484.334015,162.669647 
	C483.389771,159.360825 482.715057,155.059998 477.064301,155.015076 
z"/>
<path fill="#CA4E27" opacity="1.000000" stroke="none" 
	d="
M707.425293,189.999664 
	C707.425415,178.704025 707.425415,167.908371 707.425415,156.664627 
	C704.621948,156.436996 702.222778,156.242188 699.521484,156.022858 
	C699.521484,151.809570 699.521484,147.747452 699.521484,143.264282 
	C701.936035,143.109314 704.347473,142.954544 707.240601,142.768860 
	C707.517456,132.884232 707.476196,122.707542 717.530212,116.943794 
	C723.773376,113.364723 730.438110,113.095543 737.391235,115.404587 
	C737.391235,119.818443 737.391235,124.106522 737.391235,128.351013 
	C725.512024,130.563522 724.527283,131.738464 725.509216,142.813171 
	C728.710205,142.813171 731.965881,142.813171 735.900330,142.813171 
	C735.900330,145.365021 735.900269,147.461121 735.900269,149.557220 
	C735.900269,151.544815 735.900330,153.532410 735.900330,156.115967 
	C732.444153,156.115967 729.223999,156.115967 725.459839,156.115967 
	C725.459839,174.576996 725.459839,192.457565 725.459839,210.671097 
	C719.341309,210.671097 713.758179,210.671097 707.425110,210.671097 
	C707.425110,204.012024 707.425110,197.255829 707.425293,189.999664 
z"/>
<path fill="#CA4C25" opacity="1.000000" stroke="none" 
	d="
M671.994751,176.000000 
	C671.994751,164.884918 671.994751,154.269821 671.994751,143.325668 
	C677.949829,143.325668 683.642395,143.325668 689.591797,143.325668 
	C689.591797,165.834137 689.591797,188.170303 689.591797,210.755951 
	C683.763367,210.755951 678.188232,210.755951 671.994751,210.755951 
	C671.994751,199.301971 671.994751,187.900986 671.994751,176.000000 
z"/>
<path fill="#CB4E27" opacity="1.000000" stroke="none" 
	d="
M676.317871,134.036835 
	C672.109924,131.563507 670.110107,127.889481 671.514709,123.824097 
	C672.461792,121.083115 675.037109,118.213234 677.640503,116.895897 
	C681.676270,114.853722 685.917603,116.204811 688.645081,119.964142 
	C691.210510,123.500015 691.195740,127.595703 688.674683,131.134872 
	C685.677979,135.341827 681.369019,135.852234 676.317871,134.036835 
z"/>
<path fill="#CB4E27" opacity="1.000000" stroke="none" 
	d="
M84.930527,69.020111 
	C83.613297,70.259003 82.549728,71.246994 81.433014,72.284355 
	C77.193649,68.025055 73.116577,63.928818 69.257927,60.052029 
	C71.936066,57.420441 74.598488,54.804295 77.222496,52.225895 
	C80.822571,55.968464 84.874832,60.181103 89.903481,65.408791 
	C88.685921,66.275772 86.935059,67.522499 84.930527,69.020111 
z"/>
<path fill="#CB4E27" opacity="1.000000" stroke="none" 
	d="
M232.438141,223.565216 
	C230.293625,221.717178 228.399872,220.119904 226.825394,218.791916 
	C229.966293,215.468674 232.519897,212.766800 235.056946,210.082474 
	C238.842285,214.084549 242.846786,218.318314 246.830002,222.529572 
	C244.698669,224.630035 242.019409,227.270477 238.471802,230.766693 
	C236.685806,228.620041 234.687347,226.218002 232.438141,223.565216 
z"/>
<path fill="#CB542E" opacity="1.000000" stroke="none" 
	d="
M55.632805,145.568268 
	C49.721657,146.465195 43.876949,146.910217 37.675621,147.382385 
	C37.675621,142.864670 37.675621,139.127213 37.675621,135.115479 
	C43.619774,135.115479 49.367775,135.115479 55.699253,135.115479 
	C55.699253,138.546951 55.699253,141.831650 55.632805,145.568268 
z"/>
<path fill="#CD5D3A" opacity="1.000000" stroke="none" 
	d="
M356.381317,294.835327 
	C356.381531,288.747711 356.381531,283.137360 356.381531,276.965851 
	C359.095184,276.965851 361.366241,276.840118 363.618683,276.991333 
	C368.702118,277.332581 370.857849,280.909485 369.113586,285.665924 
	C368.685913,286.832092 368.334106,288.425964 368.787811,289.451263 
	C372.002014,296.714508 369.307739,301.033783 361.358093,301.052795 
	C359.890747,301.056335 358.423431,301.053314 356.381104,301.053314 
	C356.381104,298.880249 356.381104,297.096436 356.381317,294.835327 
M359.679688,291.620331 
	C359.679688,293.710236 359.679688,295.800140 359.679688,299.206757 
	C362.615540,298.006226 365.160248,297.699646 366.272217,296.274872 
	C367.136261,295.167786 366.863159,291.581573 365.938843,291.027832 
	C364.391846,290.101044 361.922516,290.713806 359.679688,291.620331 
M359.837128,286.167572 
	C361.779846,286.020599 363.926514,286.301941 365.567108,285.520569 
	C366.244781,285.197815 366.492126,281.763428 365.783722,281.205078 
	C364.374695,280.094452 362.167969,279.995880 359.664978,279.306824 
	C359.664978,282.016846 359.664978,283.641693 359.837128,286.167572 
z"/>
<path fill="#CB5029" opacity="1.000000" stroke="none" 
	d="
M78.888123,211.665253 
	C79.898117,210.757858 80.654938,210.121841 81.320000,209.562943 
	C84.088402,212.321671 86.766449,214.990372 89.477997,217.692444 
	C85.349861,221.800873 81.264702,225.866516 77.150986,229.960587 
	C74.560806,227.308533 71.935326,224.620331 68.857834,221.469315 
	C72.020912,218.385315 75.327919,215.160965 78.888123,211.665253 
z"/>
<path fill="#CB5029" opacity="1.000000" stroke="none" 
	d="
M246.322266,58.042152 
	C246.348541,59.492302 246.477570,61.021358 245.775253,61.811581 
	C242.597885,65.386696 239.185532,68.752968 235.422318,72.644806 
	C232.658997,69.397446 230.159241,66.459824 227.628967,63.486343 
	C231.301208,59.948128 235.430832,55.969231 240.163773,51.409031 
	C241.888000,53.277969 243.965118,55.529411 246.322266,58.042152 
z"/>
<path fill="#CA4C25" opacity="1.000000" stroke="none" 
	d="
M278.497070,146.495239 
	C272.681702,146.805984 267.220764,146.805984 261.368286,146.805984 
	C261.368286,143.112564 261.368286,139.403259 261.368286,135.275009 
	C266.833313,135.275009 272.540649,135.275009 278.851532,135.275009 
	C278.851532,138.740768 278.851532,142.462646 278.497070,146.495239 
z"/>
<path fill="#CA4E27" opacity="1.000000" stroke="none" 
	d="
M152.136169,26.116287 
	C152.136200,24.005854 152.136200,22.373199 152.136200,20.374384 
	C156.111877,20.374384 159.808014,20.374384 163.875031,20.374384 
	C163.875031,25.994453 163.875031,31.684090 163.875031,37.740997 
	C160.257324,37.740997 156.544281,37.740997 152.136124,37.740997 
	C152.136124,34.073673 152.136124,30.333870 152.136169,26.116287 
z"/>
<path fill="#CC5C38" opacity="1.000000" stroke="none" 
	d="
M693.613892,284.567444 
	C694.248535,289.646667 694.668396,294.405365 694.934204,299.172638 
	C694.965759,299.739197 694.155579,300.352692 693.735596,300.944427 
	C693.157776,300.345245 692.119263,299.774261 692.080627,299.142090 
	C691.897827,296.154724 692.302795,293.102448 691.853577,290.172150 
	C691.617126,288.629852 690.058167,287.290283 689.096375,285.859192 
	C688.102600,287.337280 686.453430,288.730927 686.249939,290.310791 
	C685.811096,293.717712 686.115051,297.220306 684.971619,301.242767 
	C684.343140,300.496277 683.231079,299.785797 683.172363,298.996887 
	C682.950256,296.014679 683.397827,292.954193 682.926270,290.030823 
	C682.683716,288.526855 681.031433,287.250275 680.016235,285.870972 
	C679.103455,287.201599 677.552307,288.464722 677.403076,289.876068 
	C677.025513,293.447449 677.277832,297.085419 677.277832,300.834595 
	C673.881836,299.811615 673.195190,294.159332 674.678284,283.572662 
	C679.790771,281.849548 685.065796,285.455566 690.234741,283.094025 
	C690.949036,282.767700 692.297791,283.830048 693.613892,284.567444 
z"/>
<path fill="#CC5C38" opacity="1.000000" stroke="none" 
	d="
M620.071289,291.826233 
	C621.363464,294.921814 622.577393,297.643768 623.891418,300.590210 
	C619.653931,301.997864 619.888428,298.292206 618.703003,296.384491 
	C617.387817,294.267883 617.367249,290.409454 612.641357,292.439911 
	C612.641357,294.477173 612.763672,296.614197 612.577698,298.724060 
	C612.508789,299.505981 611.716003,300.224091 611.253296,300.971313 
	C610.637146,300.212952 609.500916,299.464691 609.486023,298.694702 
	C609.348572,291.590393 609.404907,284.482330 609.404907,277.084503 
	C614.216431,277.323425 619.098389,275.211243 622.094299,280.106506 
	C624.673218,284.320404 622.449402,287.988922 620.071289,291.826233 
M615.242249,279.727631 
	C609.684875,281.656647 613.944763,285.683716 613.540894,289.223755 
	C616.122803,288.386261 618.861877,287.287964 619.703308,285.360992 
	C620.801208,282.846649 619.845886,280.039215 615.242249,279.727631 
z"/>
<path fill="#CC5834" opacity="1.000000" stroke="none" 
	d="
M468.109497,279.067108 
	C474.877716,275.270233 478.918152,276.770233 481.178650,284.718506 
	C479.389709,283.592529 478.483704,282.924622 477.494141,282.420929 
	C475.761322,281.538910 473.827972,279.916748 472.260895,280.194885 
	C470.959961,280.425751 469.446198,282.824615 469.129700,284.474640 
	C468.606781,287.200745 468.834839,290.105316 468.998657,292.920013 
	C469.201813,296.412018 471.053925,298.980072 474.683472,298.024445 
	C476.382141,297.577179 477.497101,294.912994 479.175995,292.893494 
	C476.346344,291.770752 474.980103,291.228668 473.613892,290.686584 
	C473.660461,290.222198 473.707031,289.757782 473.753601,289.293396 
	C475.990387,289.164337 478.227173,289.035278 480.421753,288.908630 
	C482.445435,299.254974 479.609253,301.236816 473.573547,300.756958 
	C471.062531,300.557312 466.940033,297.711182 466.741150,295.745667 
	C466.197296,290.370117 467.349335,284.822998 468.109497,279.067108 
z"/>
<path fill="#CC5C38" opacity="1.000000" stroke="none" 
	d="
M432.184265,291.068329 
	C433.551025,286.745209 434.736481,282.782288 436.108704,278.885101 
	C436.374634,278.129822 437.373718,277.145416 438.027161,277.150879 
	C438.680969,277.156403 439.672119,278.156433 439.919983,278.915009 
	C442.261658,286.082214 444.476074,293.291016 446.727173,300.487854 
	C446.349304,300.762695 445.971466,301.037537 445.593597,301.312408 
	C444.730896,300.369476 443.316315,299.533020 443.109985,298.463501 
	C442.514313,295.375549 440.869415,294.665375 437.914948,294.605194 
	C434.755035,294.540802 433.483795,295.753540 432.884247,298.656433 
	C432.673828,299.675110 431.368134,300.467590 430.562561,301.363342 
	C430.156525,301.123199 429.750488,300.883026 429.344452,300.642853 
	C430.252350,297.579041 431.160217,294.515259 432.184265,291.068329 
M436.277161,286.911163 
	C435.903259,288.465027 435.529358,290.018860 435.106812,291.774902 
	C437.180237,291.774902 438.951202,291.774902 441.148865,291.774902 
	C440.152405,288.686859 439.259827,285.920746 437.968719,281.919586 
	C437.177643,284.322784 436.870636,285.255432 436.277161,286.911163 
z"/>
<path fill="#CC5A36" opacity="1.000000" stroke="none" 
	d="
M406.026001,296.766724 
	C405.780121,294.398163 405.391693,292.396423 405.524780,290.429932 
	C405.953491,284.095490 408.440979,282.310181 414.584839,283.625885 
	C415.064484,281.048187 415.544373,278.469177 416.024231,275.890167 
	C416.617004,275.978546 417.209778,276.066925 417.802551,276.155304 
	C417.802551,284.246826 417.802551,292.338348 417.802551,300.845337 
	C413.849701,299.632233 408.575684,303.422485 406.026001,296.766724 
M411.706543,298.235291 
	C412.842834,297.145660 414.867096,296.111664 414.939545,294.955414 
	C415.116608,292.129181 414.391144,289.246399 414.028961,286.386383 
	C412.436646,286.679749 409.747131,286.547241 409.439667,287.339325 
	C408.016571,291.005707 407.048920,294.959717 411.706543,298.235291 
z"/>
<path fill="#CD5D3A" opacity="1.000000" stroke="none" 
	d="
M639.080078,289.205841 
	C638.193726,290.613922 637.425781,292.209167 636.346558,292.458710 
	C634.354736,292.919220 632.180420,292.590302 630.059998,292.590302 
	C630.314087,298.550201 630.390259,298.590668 638.236267,297.607147 
	C638.428955,297.999207 638.621643,298.391266 638.814270,298.783325 
	C636.926636,299.532959 634.826416,301.191406 633.202942,300.811646 
	C630.967285,300.288727 628.344482,298.639587 627.272339,296.705353 
	C626.200562,294.771698 626.609863,291.877747 626.773865,289.431854 
	C627.006592,285.961060 628.694946,283.364410 632.465942,283.028809 
	C636.526428,282.667480 638.587891,284.887329 639.080078,289.205841 
z"/>
<path fill="#CD5D3A" opacity="1.000000" stroke="none" 
	d="
M569.431580,286.624207 
	C571.511841,283.032928 574.751282,281.663422 577.551453,283.674500 
	C579.747925,285.251984 580.597107,288.705383 582.540100,292.221619 
	C577.850342,292.516235 574.952087,292.698303 572.066772,292.879547 
	C572.322266,298.551514 572.326294,298.553650 580.246826,297.618195 
	C580.437317,298.009644 580.627808,298.401123 580.818359,298.792572 
	C578.922363,299.538940 576.732178,301.264191 575.198975,300.803406 
	C572.870972,300.103729 569.922363,298.267273 569.197998,296.220032 
	C568.229614,293.483124 569.136597,290.082642 569.431580,286.624207 
z"/>
<path fill="#CC5834" opacity="1.000000" stroke="none" 
	d="
M596.967102,280.245850 
	C596.967224,287.356079 596.967224,293.993256 596.967224,301.377960 
	C592.965332,300.484985 588.572693,300.678284 586.150940,298.588135 
	C584.259155,296.955383 584.194458,292.443726 584.418762,289.289642 
	C584.808167,283.814728 587.618042,282.345184 593.762512,283.738525 
	C593.913330,281.161102 594.061829,278.623932 594.210388,276.086792 
	C594.739929,275.979340 595.269470,275.871887 595.799011,275.764404 
	C596.188354,277.100525 596.577698,278.436646 596.967102,280.245850 
M593.979492,292.443695 
	C593.978882,291.612213 594.273865,290.614532 593.918518,289.982483 
	C593.078735,288.488800 591.929626,287.169006 590.905640,285.778839 
	C589.673767,287.065948 588.207336,288.209717 587.300110,289.695099 
	C586.774719,290.555267 586.754517,292.155640 587.203247,293.087677 
	C588.092102,294.933929 589.221497,297.715454 590.685242,298.019073 
	C593.911011,298.688141 594.075195,295.797058 593.979492,292.443695 
z"/>
<path fill="#CD613F" opacity="1.000000" stroke="none" 
	d="
M513.422729,296.692139 
	C512.848206,298.415344 512.274170,299.696747 511.700134,300.978119 
	C511.231445,299.736694 510.462799,298.520294 510.356567,297.248566 
	C510.136536,294.615234 510.543213,291.909424 510.137482,289.320343 
	C509.941925,288.072449 508.488983,287.021606 507.605408,285.881470 
	C506.637390,287.016449 505.000610,288.061310 504.833160,289.304169 
	C504.416290,292.397980 504.755981,295.586517 504.589844,298.726318 
	C504.548981,299.497925 503.734467,300.228577 503.275635,300.978058 
	C502.689148,300.201233 501.631866,299.445679 501.595703,298.644012 
	C501.416687,294.675568 501.483551,290.694733 501.518158,286.718719 
	C501.528015,285.586884 501.720490,284.456635 501.821045,283.410797 
	C504.071930,283.261841 506.335571,282.509521 508.079071,283.157257 
	C510.025726,283.880432 512.392151,285.586884 512.971863,287.383057 
	C513.850037,290.103943 513.342224,293.272156 513.422729,296.692139 
z"/>
<path fill="#CC5A36" opacity="1.000000" stroke="none" 
	d="
M374.476135,287.305359 
	C375.071350,285.589691 375.666107,284.316040 376.260864,283.042389 
	C376.681976,284.324524 377.365448,285.585846 377.469055,286.893127 
	C377.678986,289.541473 377.289429,292.262665 377.725586,294.856537 
	C377.930267,296.074097 379.476074,297.066101 380.414093,298.160339 
	C381.360840,297.013489 382.949432,295.956696 383.125488,294.701691 
	C383.537933,291.761536 383.144775,288.717407 383.354706,285.734863 
	C383.425964,284.722443 384.327545,283.768463 384.849670,282.787781 
	C385.233734,282.939117 385.617828,283.090454 386.001892,283.241821 
	C386.001892,288.965149 386.001892,294.688477 386.001892,300.434967 
	C385.742615,300.588928 385.455780,300.911835 385.211395,300.882385 
	C374.476715,299.588623 374.477173,299.584900 374.476135,287.305359 
z"/>
<path fill="#CC5C38" opacity="1.000000" stroke="none" 
	d="
M699.978271,297.716156 
	C699.548218,295.380341 699.034668,293.422150 699.049316,291.467896 
	C699.091492,285.837524 701.673279,282.781860 705.939331,282.982086 
	C710.026978,283.173950 711.613159,285.666138 711.501404,292.260193 
	C708.516479,292.462555 705.468750,292.669189 702.440552,292.874481 
	C702.717407,298.475952 703.320862,298.800995 710.636780,297.551361 
	C709.080933,302.182068 704.680420,302.410126 699.978271,297.716156 
M702.320618,287.865662 
	C703.448547,292.429626 706.504395,288.917877 708.902832,289.897827 
	C707.872437,285.382416 705.988220,284.419830 702.320618,287.865662 
z"/>
<path fill="#CC5C38" opacity="1.000000" stroke="none" 
	d="
M519.656860,284.557190 
	C526.846130,281.254883 530.401794,284.130890 529.556763,292.350586 
	C526.679321,292.516510 523.756287,292.685028 520.847778,292.852722 
	C520.999084,298.540649 521.285522,298.696747 528.910828,297.595001 
	C529.110779,297.976166 529.310730,298.357300 529.510620,298.738464 
	C527.769531,299.500214 525.836060,301.145111 524.332092,300.817627 
	C522.050354,300.320740 518.441223,298.637177 518.271362,297.133057 
	C517.818848,293.125946 518.901306,288.945496 519.656860,284.557190 
M526.766113,287.827972 
	C523.274048,284.478851 521.876099,284.856598 520.156250,290.577545 
	C522.722961,289.842865 524.810791,289.245270 526.766113,287.827972 
z"/>
<path fill="#CC5C38" opacity="1.000000" stroke="none" 
	d="
M489.539764,297.208374 
	C492.154327,297.551361 494.465393,297.551361 496.776489,297.551361 
	C497.017334,297.898651 497.258209,298.245911 497.499054,298.593201 
	C495.987915,299.394470 494.333313,301.038635 492.997192,300.811249 
	C490.639862,300.410126 486.859467,299.209747 486.547882,297.736389 
	C485.744232,293.936035 485.843903,289.598785 486.979614,285.905548 
	C487.429169,284.443695 491.852722,282.993378 493.979645,283.516907 
	C498.049896,284.518890 498.228943,288.379150 497.712585,292.333191 
	C494.713196,292.507660 491.801300,292.677032 488.329834,292.878937 
	C488.692871,294.475586 488.964600,295.670502 489.539764,297.208374 
M490.777100,285.790924 
	C489.844574,286.897705 488.912018,288.004517 487.441315,289.750031 
	C490.583405,289.750031 492.649048,289.750031 494.714722,289.750031 
	C494.957245,289.362640 495.199768,288.975250 495.442291,288.587891 
	C494.157623,287.613678 492.872955,286.639465 490.777100,285.790924 
z"/>
<path fill="#CD5D3A" opacity="1.000000" stroke="none" 
	d="
M548.428223,285.825806 
	C546.604858,286.681885 545.203796,287.474365 542.720947,288.878693 
	C544.228333,283.892731 546.957397,282.126251 550.162415,283.251709 
	C552.069580,283.921509 554.082886,286.685455 554.460510,288.792511 
	C555.148804,292.633270 554.656067,296.685608 554.656067,300.760651 
	C552.879517,300.760651 551.070557,300.519257 549.353638,300.813843 
	C546.323059,301.333832 543.924683,300.718048 543.096863,297.556976 
	C542.302856,294.524597 543.183044,291.874176 546.344666,290.630219 
	C547.847656,290.038849 549.523987,289.888397 552.557800,289.223541 
	C550.912659,287.687531 549.881531,286.724854 548.428223,285.825806 
M547.335266,292.942139 
	C547.104492,294.516968 546.873718,296.091797 546.642944,297.666626 
	C547.897095,297.634460 549.624390,298.092285 550.289368,297.450073 
	C551.184998,296.585205 551.261963,294.872559 551.690308,293.523804 
	C550.476257,293.209290 549.262146,292.894775 547.335266,292.942139 
z"/>
<path fill="#CC5C38" opacity="1.000000" stroke="none" 
	d="
M651.091064,283.546997 
	C652.389465,284.929230 653.353516,286.120178 654.317505,287.311157 
	C654.066711,287.644958 653.815918,287.978790 653.565125,288.312622 
	C652.666870,287.963470 651.795166,287.478851 650.864197,287.295837 
	C649.340149,286.996216 647.777527,286.892761 646.231201,286.706573 
	C647.138672,288.019196 648.024719,289.347656 648.973572,290.629669 
	C649.142212,290.857635 649.574585,290.885956 649.880432,291.017639 
	C652.703918,292.233459 655.241089,294.115387 653.793152,297.369781 
	C653.052856,299.033752 650.492126,300.586609 648.562866,300.865326 
	C645.358887,301.328156 642.929504,299.646576 642.162720,294.400024 
	C644.315430,296.079590 645.288208,297.301849 646.516296,297.668060 
	C647.775391,298.043518 649.284241,297.581360 650.683838,297.485809 
	C650.192810,296.275940 649.814270,294.999756 649.158203,293.887207 
	C648.876160,293.408722 648.027588,293.249329 647.420898,292.979797 
	C644.696411,291.769592 642.041687,290.256012 643.087646,286.733429 
	C644.222473,282.911743 647.306213,282.467377 651.091064,283.546997 
z"/>
<path fill="#CC5834" opacity="1.000000" stroke="none" 
	d="
M663.056152,298.113434 
	C664.633545,296.717834 666.524353,295.347321 666.768127,293.728760 
	C667.279053,290.336609 666.923096,286.813843 666.923096,283.247986 
	C670.298096,284.100525 670.735840,287.377625 669.651184,300.476593 
	C667.532532,300.651917 665.176208,301.476929 663.341187,300.827972 
	C661.362244,300.128052 658.678467,298.242218 658.401001,296.532990 
	C657.697083,292.196747 658.167236,287.669891 658.167236,283.219330 
	C658.711914,283.082611 659.256592,282.945892 659.801270,282.809143 
	C660.201843,284.080780 660.758850,285.326630 660.973328,286.628937 
	C661.596985,290.415863 662.083374,294.225464 663.056152,298.113434 
z"/>
<path fill="#CE6949" opacity="1.000000" stroke="none" 
	d="
M398.419250,291.927307 
	C398.423981,287.118866 398.340851,282.795349 398.507904,278.481537 
	C398.540619,277.636536 399.541962,276.829041 400.096558,276.004242 
	C400.618744,276.867004 401.577209,277.721497 401.593750,278.593811 
	C401.719604,285.237732 401.720520,291.886322 401.586029,298.529968 
	C401.569183,299.362396 400.535248,300.174255 399.972534,300.995636 
	C399.458435,300.129517 398.606598,299.302887 398.499725,298.389160 
	C398.269623,296.421722 398.422699,294.409515 398.419250,291.927307 
z"/>
<path fill="#CD613F" opacity="1.000000" stroke="none" 
	d="
M450.262878,299.390045 
	C450.218201,292.779510 450.125183,286.610687 450.286346,280.448486 
	C450.316650,279.291534 451.362366,278.161194 451.939453,277.018585 
	C452.449310,278.049286 453.375793,279.070190 453.400208,280.112244 
	C453.540802,286.108826 453.481934,292.110504 453.460327,298.110321 
	C453.451630,300.528961 453.081177,302.424194 450.262878,299.390045 
z"/>
<path fill="#CC5834" opacity="1.000000" stroke="none" 
	d="
M560.972351,299.717468 
	C560.475586,295.939392 560.369629,292.472046 559.902527,289.054016 
	C559.677551,287.407349 558.772095,285.853668 558.011292,283.821106 
	C561.320679,280.825989 561.320679,280.825989 565.370972,283.757965 
	C561.955078,287.685333 561.958923,295.637909 566.251770,300.927643 
	C563.906616,300.518341 562.560669,300.283417 560.972351,299.717468 
z"/>
<path fill="#CD613F" opacity="1.000000" stroke="none" 
	d="
M533.552795,299.302124 
	C533.519592,293.772095 533.519592,288.678711 533.519592,283.209839 
	C534.787048,283.288269 535.682434,283.286652 536.560059,283.410919 
	C537.986206,283.612823 539.400574,283.897217 540.819946,284.146790 
	C539.844116,284.982086 538.548767,285.642670 537.972412,286.696472 
	C537.235229,288.044434 536.849609,289.690613 536.722351,291.241913 
	C536.520630,293.699799 536.789001,296.194733 536.616455,298.657013 
	C536.446045,301.089905 536.314270,301.080658 533.552795,299.302124 
z"/>
<path fill="#CB542E" opacity="1.000000" stroke="none" 
	d="
M393.685730,283.574768 
	C393.947876,288.753418 394.045685,293.535339 393.941711,298.312866 
	C393.922424,299.199768 393.090546,300.068970 392.633698,300.946350 
	C392.100861,300.135437 391.135498,299.339233 391.107330,298.511169 
	C390.956146,294.064697 390.934113,289.605255 391.147583,285.163788 
	C391.181152,284.466034 392.647797,283.837219 393.685730,283.574768 
z"/>
<path fill="#E1F6F8" opacity="1.000000" stroke="none" 
	d="
M213.225403,182.184128 
	C198.602585,200.505035 189.631638,220.708008 188.834412,244.051666 
	C188.688965,248.310120 187.252594,249.722977 182.888184,249.657867 
	C166.406311,249.412003 149.917679,249.466385 133.433716,249.626785 
	C129.560150,249.664459 127.816383,248.823273 127.725128,244.460220 
	C127.237511,221.146881 119.417595,200.537827 104.102409,182.871765 
	C83.774033,159.422974 80.272774,132.818344 92.421394,105.147980 
	C102.996048,81.062599 122.546898,66.636154 149.085770,63.085285 
	C185.960983,58.151413 222.043304,82.814255 229.249924,120.713379 
	C232.941589,140.127594 229.518127,158.401718 218.323578,174.958206 
	C216.739319,177.301300 215.070053,179.586914 213.225403,182.184128 
z"/>
<path fill="#E1F4F5" opacity="1.000000" stroke="none" 
	d="
M362.928345,149.769562 
	C361.121887,161.166199 356.675049,163.593597 341.842163,161.501663 
	C341.842163,152.977112 341.842163,144.411530 341.842163,135.892517 
	C356.599548,132.814301 362.550140,136.662933 362.928345,149.769562 
z"/>
<path fill="#E1F4F5" opacity="1.000000" stroke="none" 
	d="
M410.161804,165.595184 
	C411.719055,162.699051 412.652649,159.448196 414.808716,157.901840 
	C419.466339,154.561371 425.117645,157.345764 426.549927,163.290573 
	C427.111328,165.620651 427.039764,168.103226 427.279938,170.777695 
	C421.319977,170.777695 415.898285,170.777695 410.092438,170.777695 
	C410.092438,169.152466 410.092438,167.582855 410.161804,165.595184 
z"/>
<path fill="#E1F5F7" opacity="1.000000" stroke="none" 
	d="
M143.003906,285.884491 
	C158.284286,285.884460 173.065201,285.884460 188.125488,285.884460 
	C188.125488,289.967926 188.125488,293.563232 188.125488,297.546906 
	C168.252060,297.546906 148.401550,297.546906 128.298492,297.546906 
	C128.298492,293.864044 128.298492,290.264130 128.298492,285.884521 
	C133.013214,285.884521 137.758820,285.884521 143.003906,285.884491 
z"/>
<path fill="#E1F4F5" opacity="1.000000" stroke="none" 
	d="
M359.760529,291.149475 
	C361.922516,290.713806 364.391846,290.101044 365.938843,291.027832 
	C366.863159,291.581573 367.136261,295.167786 366.272217,296.274872 
	C365.160248,297.699646 362.615540,298.006226 359.679688,299.206757 
	C359.679688,295.800140 359.679688,293.710236 359.760529,291.149475 
z"/>
<path fill="#E0F1F1" opacity="1.000000" stroke="none" 
	d="
M359.751038,285.717041 
	C359.664978,283.641693 359.664978,282.016846 359.664978,279.306824 
	C362.167969,279.995880 364.374695,280.094452 365.783722,281.205078 
	C366.492126,281.763428 366.244781,285.197815 365.567108,285.520569 
	C363.926514,286.301941 361.779846,286.020599 359.751038,285.717041 
z"/>
<path fill="#E1F4F5" opacity="1.000000" stroke="none" 
	d="
M615.694824,279.741211 
	C619.845886,280.039215 620.801208,282.846649 619.703308,285.360992 
	C618.861877,287.287964 616.122803,288.386261 613.540894,289.223755 
	C613.944763,285.683716 609.684875,281.656647 615.694824,279.741211 
z"/>
<path fill="#DFEBEA" opacity="1.000000" stroke="none" 
	d="
M436.420410,286.549622 
	C436.870636,285.255432 437.177643,284.322784 437.968719,281.919586 
	C439.259827,285.920746 440.152405,288.686859 441.148865,291.774902 
	C438.951202,291.774902 437.180237,291.774902 435.106812,291.774902 
	C435.529358,290.018860 435.903259,288.465027 436.420410,286.549622 
z"/>
<path fill="#E0F1F1" opacity="1.000000" stroke="none" 
	d="
M411.284729,298.154480 
	C407.048920,294.959717 408.016571,291.005707 409.439667,287.339325 
	C409.747131,286.547241 412.436646,286.679749 414.028992,286.386383 
	C414.391144,289.246399 415.116608,292.129181 414.939545,294.955414 
	C414.867096,296.111664 412.842834,297.145660 411.284729,298.154480 
z"/>
<path fill="#E0F1F1" opacity="1.000000" stroke="none" 
	d="
M593.979370,292.888733 
	C594.075195,295.797058 593.911011,298.688141 590.685242,298.019073 
	C589.221497,297.715454 588.092102,294.933929 587.203247,293.087677 
	C586.754517,292.155640 586.774719,290.555267 587.300110,289.695099 
	C588.207336,288.209717 589.673767,287.065948 590.905640,285.778870 
	C591.929626,287.169006 593.078735,288.488800 593.918518,289.982483 
	C594.273865,290.614532 593.978882,291.612213 593.979370,292.888733 
z"/>
<path fill="#DFEBEA" opacity="1.000000" stroke="none" 
	d="
M702.516846,287.502075 
	C705.988220,284.419830 707.872437,285.382416 708.902832,289.897827 
	C706.504395,288.917877 703.448547,292.429626 702.516846,287.502075 
z"/>
<path fill="#DFEBEA" opacity="1.000000" stroke="none" 
	d="
M526.832397,288.237823 
	C524.810791,289.245270 522.722961,289.842865 520.156250,290.577545 
	C521.876099,284.856598 523.274048,284.478851 526.832397,288.237823 
z"/>
<path fill="#DFEBEA" opacity="1.000000" stroke="none" 
	d="
M491.182678,285.728088 
	C492.872955,286.639465 494.157623,287.613678 495.442291,288.587891 
	C495.199768,288.975250 494.957245,289.362640 494.714722,289.750031 
	C492.649048,289.750031 490.583405,289.750031 487.441315,289.750031 
	C488.912018,288.004517 489.844574,286.897705 491.182678,285.728088 
z"/>
<path fill="#DFEBEA" opacity="1.000000" stroke="none" 
	d="
M547.691650,292.761230 
	C549.262146,292.894775 550.476257,293.209290 551.690308,293.523804 
	C551.261963,294.872559 551.184998,296.585205 550.289368,297.450073 
	C549.624390,298.092285 547.897095,297.634460 546.642944,297.666626 
	C546.873718,296.091797 547.104492,294.516968 547.691650,292.761230 
z"/>
</svg>